# xmcd
#
# Track frame offsets:
#	150
#	17354
#	37154
#	54225
#	70279
#	84948
#	99901
#	122710
#	142148
#	160193
#	175563
#	199906
#	217337
#	232986
#	249275
#	268519
#	285306
#	301317
#
# Disc length: 4215 seconds
#
# Revision: 0
# Processed by: cddbd v1.5.2PL0 Copyright (c) Steve Scherf et al.
# Submitted via: dBpowerAMP V4.0
#
DISCID=f1107512
DTITLE=charlie landsborough - smile
DYEAR=1900
DGENRE=
TTITLE0=sentimentally yours
TTITLE1=gone,but i cant let you go
TTITLE2=smile
TTITLE3=little bit of heaven
TTITLE4=the bluebell man
TTITLE5=peace of mind
TTITLE6=what makes me happy
TTITLE7=after all these years
TTITLE8=child of candlelight
TTITLE9=raining in my heart
TTITLE10=takin' my time
TTITLE11=marie
TTITLE12=counterfeit man
TTITLE13=like you once loved me
TTITLE14=getting out
TTITLE15=silver if my tears
TTITLE16=what happened to love
TTITLE17=when you were sweet sixteen
EXTD=
EXTT0=
EXTT1=
EXTT2=
EXTT3=
EXTT4=
EXTT5=
EXTT6=
EXTT7=
EXTT8=
EXTT9=
EXTT10=
EXTT11=
EXTT12=
EXTT13=
EXTT14=
EXTT15=
EXTT16=
EXTT17=
PLAYORDER=
